<svg width="220" height="45" viewBox="0 0 220 45" fill="none" xmlns="http://www.w3.org/2000/svg">
<path d="M23.1027 11.6811C22.3918 11.8119 21.7787 12.1403 21.3179 12.592C19.3302 14.5269 16.8972 15.9695 14.211 16.6893L13.1949 16.9615C10.5086 17.6813 7.69429 17.6448 4.99149 16.9667C4.3527 16.8097 3.6575 16.8319 2.99041 17.0703C1.44099 17.6346 0.507328 19.2722 0.824868 20.9027C1.20035 22.8608 3.14635 24.055 5.03928 23.5478C5.60993 23.3948 6.11173 23.0963 6.51783 22.7189C8.52323 20.7942 10.9348 19.3275 13.635 18.604L14.651 18.3317C17.3373 17.6119 20.1554 17.6624 22.8721 18.3367C23.4162 18.4744 23.9824 18.4718 24.567 18.3152C26.4599 17.808 27.5481 15.8008 26.8943 13.9173C26.354 12.3464 24.7267 11.3951 23.1027 11.6811Z" fill="#EEEDE6"/>
<path d="M36.3693 16.5401C35.6584 16.6709 35.0453 16.9993 34.5845 17.451C32.5968 19.3859 30.1638 20.8285 27.4775 21.5483L26.4615 21.8206C23.7752 22.5404 20.9609 22.5038 18.2581 21.8257C17.6193 21.6687 16.9241 21.6909 16.257 21.9293C14.7076 22.4937 13.7776 24.1452 14.0914 25.7617C14.4669 27.7198 16.4129 28.914 18.3059 28.4068C18.8765 28.2539 19.3783 27.9553 19.7844 27.578C21.7898 25.6532 24.2014 24.1865 26.9016 23.463L27.9176 23.1907C30.6039 22.4709 33.422 22.5214 36.1387 23.1957C36.6828 23.3334 37.249 23.3309 37.8336 23.1742C39.7265 22.667 40.8147 20.6598 40.1609 18.7763C39.6206 17.2055 37.9933 16.2541 36.3693 16.5401Z" fill="#EEEDE6"/>
<path d="M32.155 0.811771C31.4441 0.942573 30.831 1.27097 30.3702 1.72264C28.3825 3.65757 25.9495 5.10016 23.2633 5.81996L22.2472 6.09222C19.5609 6.81202 16.7466 6.77548 14.0438 6.0974C13.405 5.94036 12.7098 5.96255 12.0427 6.20097C10.4933 6.76533 9.56335 8.41682 9.87716 10.0334C10.2526 11.9915 12.1986 13.1857 14.0916 12.6784C14.6622 12.5255 15.164 12.227 15.5701 11.8496C17.5755 9.92487 19.9871 8.45818 22.6873 7.73464L23.7033 7.46239C26.3896 6.74259 29.2077 6.79305 31.9244 7.4674C32.4685 7.60505 33.0347 7.60252 33.6193 7.44588C35.5122 6.93866 36.6004 4.93147 35.9466 3.04796C35.4063 1.47713 33.779 0.525791 32.155 0.811771Z" fill="#EEEDE6"/>
<path d="M40.5798 32.2545C39.869 32.3853 39.2558 32.7137 38.7951 33.1654C36.8073 35.1003 34.3744 36.5429 31.6881 37.2627L30.6721 37.535C27.9858 38.2548 25.1714 38.2182 22.4686 37.5401C21.8298 37.3831 21.1346 37.4053 20.4676 37.6437C18.9181 38.2081 17.9882 39.8596 18.302 41.4762C18.6775 43.4343 20.6235 44.6284 22.5164 44.1212C23.0871 43.9683 23.5889 43.6697 23.995 43.2924C26.0004 41.3676 28.4119 39.9009 31.1121 39.1774L32.1282 38.9051C34.8145 38.1853 37.6325 38.2358 40.3493 38.9101C40.8933 39.0478 41.4595 39.0453 42.0441 38.8886C43.937 38.3814 45.0253 36.3742 44.3714 34.4907C43.8312 32.9199 42.2038 31.9685 40.5798 32.2545Z" fill="#EEEDE6"/>
<path d="M49.6385 21.4133C48.9276 21.5441 48.3145 21.8725 47.8537 22.3242C45.866 24.2591 43.433 25.7017 40.7468 26.4215L39.7307 26.6938C37.0444 27.4136 34.2301 27.377 31.5273 26.699C30.8885 26.5419 30.1933 26.5641 29.5262 26.8025C27.9768 27.3669 27.0469 29.0184 27.3607 30.635C27.7361 32.5931 29.6822 33.7872 31.5751 33.28C32.1457 33.1271 32.6475 32.8285 33.0536 32.4512C35.059 30.5264 37.4706 29.0597 40.1708 28.3362L41.1868 28.0639C43.8731 27.3441 46.6912 27.3946 49.4079 28.069C49.952 28.2066 50.5182 28.2041 51.1028 28.0474C52.9957 27.5402 54.0839 25.533 53.4301 23.6495C52.8898 22.0787 51.2625 21.1274 49.6385 21.4133Z" fill="#EEEDE6"/>
<path d="M93.2459 30.2449V39.2283H89.6288V16.2229H93.2054V18.0899C93.4486 18.2003 93.56 18.0698 93.6715 17.9393C94.2692 17.2066 94.9987 16.6445 95.8802 16.2832C97.015 15.8114 98.2004 15.711 99.4061 15.9018C102.203 16.3334 104.077 17.9694 105.222 20.4587C106.032 22.2051 106.124 24.062 105.84 25.939C105.566 27.7657 104.776 29.3516 103.449 30.6565C102.223 31.8609 100.744 32.5033 99.0211 32.6037C98.0485 32.6639 97.0859 32.5736 96.1639 32.2624C95.1305 31.9111 94.2996 31.2687 93.6512 30.4055C93.5499 30.265 93.4486 30.1847 93.2358 30.265L93.2459 30.2449ZM102.273 24.2126C102.223 23.8211 102.192 23.4196 102.132 23.0282C101.777 20.9505 100.085 19.2943 97.8863 19.2241C95.9106 19.1538 94.4516 20.1676 93.6715 21.8538C93.1547 22.968 93.1041 24.1423 93.2763 25.3468C93.56 27.3442 94.9582 28.8297 96.9643 29.1609C98.4233 29.4018 99.7405 29.0505 100.804 27.9866C101.848 26.9427 102.243 25.6479 102.284 24.2126H102.273Z" fill="#EEEDE6"/>
<path d="M85.4744 17.1765H81.7155C81.6851 16.9456 81.675 16.7148 81.6344 16.4939C81.3913 15.159 80.5503 14.346 79.2737 14.0147C78.1389 13.7237 76.994 13.7437 75.92 14.2757C75.0689 14.6973 74.5826 15.3999 74.5319 16.3534C74.4813 17.2367 74.8562 17.9293 75.5958 18.391C76.0011 18.6519 76.4469 18.8728 76.9129 19.0133C77.916 19.3144 78.9495 19.5553 79.9627 19.8363C81.1684 20.1776 82.3437 20.5791 83.4278 21.2315C84.5119 21.8839 85.2009 22.8274 85.5656 23.9917C86.0114 25.3869 86.052 26.8122 85.5859 28.2174C85.2313 29.2713 84.5828 30.1345 83.7216 30.8472C82.5058 31.8509 81.0873 32.3527 79.5169 32.5133C78.1693 32.6539 76.8218 32.6539 75.5249 32.2524C73.0932 31.5096 71.3201 30.0341 70.469 27.5951C70.2157 26.8724 70.1347 26.1096 70.1347 25.3167H73.8835C73.9038 25.5274 73.9139 25.7382 73.9443 25.949C74.1976 27.6252 75.6363 28.7193 77.1764 28.9802C78.1288 29.1408 79.0711 29.1308 79.9931 28.8297C80.8745 28.5386 81.6243 28.0568 81.9485 27.1334C82.3943 25.8587 81.8675 24.5839 80.6719 23.9215C79.8309 23.4598 78.8988 23.249 77.9768 23.0282C76.5989 22.6969 75.2412 22.3557 73.9443 21.7735C72.1307 20.9505 71.158 19.5352 70.8946 17.6081C70.773 16.7047 70.773 15.8014 71.0161 14.9081C71.3606 13.6233 72.1307 12.6296 73.1742 11.8266C74.1672 11.0638 75.3121 10.6723 76.5482 10.5118C77.8451 10.3411 79.1318 10.3612 80.3983 10.7025C82.1005 11.1642 83.5696 11.9772 84.5524 13.4828C85.1097 14.3359 85.3529 15.2895 85.4441 16.2932C85.4643 16.5742 85.4846 16.8452 85.4947 17.1564L85.4744 17.1765Z" fill="#EEEDE6"/>
<path d="M153.379 25.136H141.17C141.119 27.0029 142.153 28.8598 144.28 29.3818C146.246 29.8635 148.82 29.2212 149.661 26.8524C150.755 27.1133 151.859 27.3743 152.984 27.6353C152.72 28.4684 152.356 29.2212 151.819 29.8836C150.542 31.4494 148.86 32.2825 146.864 32.5334C145.395 32.7241 143.946 32.6137 142.538 32.1219C141.109 31.6201 139.944 30.7568 139.042 29.5524C137.563 27.575 137.198 25.3267 137.482 22.9379C137.624 21.7535 137.968 20.6293 138.627 19.6155C139.944 17.5981 141.747 16.2932 144.179 15.9218C145.669 15.691 147.138 15.8315 148.556 16.3434C149.661 16.7449 150.593 17.4174 151.363 18.2906C152.335 19.3947 152.923 20.6795 153.207 22.1048C153.399 23.0984 153.43 24.1022 153.389 25.146L153.379 25.136ZM149.661 22.4862C149.661 21.5929 149.113 20.5189 148.354 19.9267C146.428 18.4211 143.318 18.6319 141.788 20.8501C141.454 21.3419 141.231 21.8739 141.19 22.4862H149.661Z" fill="#EEEDE6"/>
<path d="M123.712 32.2022H120.105V16.243H123.712C123.712 16.765 123.712 17.2668 123.712 17.7787C123.712 17.8691 123.773 17.9494 123.804 18.0296C123.895 17.9795 124.037 17.9594 124.087 17.8791C124.837 16.7449 125.891 16.1125 127.238 15.9018C128.616 15.691 129.944 15.8215 131.18 16.4638C132.233 17.0159 132.993 17.859 133.53 18.9129C133.986 19.8263 134.148 20.81 134.148 21.8237C134.148 25.2263 134.148 28.629 134.148 32.0316C134.148 32.0818 134.148 32.1319 134.138 32.1922C134.067 32.1922 133.996 32.2122 133.936 32.2122C132.882 32.2122 131.828 32.2122 130.774 32.2122C130.562 32.2122 130.521 32.152 130.521 31.9513C130.521 28.91 130.521 25.8788 130.521 22.8375C130.521 22.1449 130.44 21.4523 130.055 20.83C129.498 19.9267 128.718 19.3445 127.623 19.2442C126.266 19.1137 125.171 19.5955 124.361 20.6795C123.925 21.2616 123.753 21.9442 123.723 22.6568C123.702 23.0784 123.723 23.51 123.723 23.9315C123.723 26.5914 123.723 29.2613 123.723 31.9212V32.1821L123.712 32.2022Z" fill="#EEEDE6"/>
<path d="M115.06 32.2122H111.443V19.3947H108.616V16.2229H115.06V32.2122Z" fill="#EEEDE6"/>
<path d="M113.337 9.24709C114.675 9.28724 115.627 10.2508 115.597 11.5356C115.556 12.8203 114.533 13.7739 113.236 13.7337C111.909 13.6936 110.916 12.6798 110.977 11.4151C111.037 10.1404 112.051 9.21698 113.337 9.25713V9.24709Z" fill="#EEEDE6"/>
<path d="M208.983 10.4415C210.938 10.4716 212.792 10.8731 214.495 11.8467C215.872 12.6296 217.007 13.6936 217.939 14.9583C218.882 16.243 219.49 17.6683 219.773 19.2241C220.219 21.6531 220.027 24.0319 219.024 26.3003C218.193 28.1773 216.876 29.6728 215.163 30.8271C213.897 31.6803 212.509 32.2424 210.999 32.4632C208.365 32.8546 205.811 32.6137 203.471 31.2587C201.07 29.8736 199.378 27.8862 198.547 25.2364C197.655 22.4059 197.787 19.5955 198.932 16.8553C199.388 15.7612 200.077 14.7977 200.887 13.9144C202.549 12.1278 204.586 11.0237 206.997 10.6222C207.655 10.5118 208.324 10.4917 208.993 10.4315L208.983 10.4415ZM200.573 21.5929C200.604 22.0144 200.624 22.436 200.675 22.8576C200.867 24.5739 201.495 26.1297 202.64 27.4345C204.879 29.994 207.737 30.7569 210.999 30.0743C213.502 29.5524 215.295 28.0267 216.45 25.7985C217.504 23.771 217.635 21.5929 217.18 19.3847C216.703 17.0761 215.396 15.3096 213.421 14.0148C212.114 13.1616 210.655 12.8103 209.114 12.7902C206.571 12.7601 204.444 13.6735 202.752 15.5705C201.222 17.2869 200.583 19.3245 200.573 21.5828V21.5929Z" fill="#EEEDE6"/>
<path d="M156.712 32.2323V30.1345H158.708V12.9809H156.712V10.8631C156.814 10.8631 156.895 10.8631 156.976 10.8631C159.458 10.8631 161.941 10.8631 164.423 10.8631C166.074 10.8631 167.685 11.0839 169.225 11.6962C170.796 12.3185 172.093 13.3122 173.136 14.617C174.048 15.7713 174.666 17.0661 175.001 18.4914C175.335 19.9166 175.406 21.372 175.294 22.8375C175.193 24.0419 174.96 25.2263 174.504 26.3405C173.633 28.4684 172.174 30.0743 170.087 31.0881C168.354 31.9312 166.49 32.2122 164.575 32.2223C162.001 32.2323 159.438 32.2223 156.864 32.2223C156.824 32.2223 156.783 32.2223 156.702 32.2223L156.712 32.2323ZM161.241 30.0241C161.312 30.0241 161.373 30.0442 161.434 30.0442C162.457 30.0442 163.491 30.0542 164.514 30.0442C165.629 30.0241 166.733 29.9037 167.797 29.5423C169.205 29.0505 170.37 28.2275 171.252 27.013C172.072 25.8788 172.518 24.594 172.68 23.2189C172.924 21.2416 172.812 19.2943 171.981 17.4374C171.262 15.8415 170.107 14.6672 168.516 13.9043C167.402 13.3724 166.216 13.1415 164.99 13.1114C163.805 13.0913 162.609 13.1014 161.424 13.1014C161.363 13.1014 161.312 13.1114 161.252 13.1214V30.0141L161.241 30.0241Z" fill="#EEEDE6"/>
<path d="M196.43 32.2323H194.282C193.978 32.2323 193.772 32.0918 193.664 31.8108C193.117 30.3453 192.57 28.8799 192.033 27.4044C191.972 27.2338 191.901 27.1635 191.708 27.1635C188.355 27.1635 184.991 27.1635 181.637 27.1635C181.424 27.1635 181.364 27.2539 181.303 27.4245C180.735 28.9602 180.168 30.4858 179.611 32.0215C179.55 32.1821 179.489 32.2424 179.307 32.2424C178.516 32.2323 177.736 32.2424 176.916 32.2424C176.956 32.1219 176.987 32.0316 177.027 31.9312C179.641 24.9854 182.255 18.0397 184.869 11.0939C184.93 10.9233 185.011 10.8631 185.193 10.8631C186.217 10.8631 187.25 10.8631 188.274 10.8631C188.456 10.8631 188.527 10.9233 188.578 11.0839C191.171 18.0598 193.765 25.0256 196.359 32.0015C196.389 32.0717 196.399 32.142 196.44 32.2424L196.43 32.2323ZM191.1 24.8951C191.07 24.8148 191.06 24.7546 191.04 24.7044C189.641 20.9103 188.243 17.1263 186.845 13.3322C186.815 13.262 186.744 13.2017 186.683 13.1315C186.622 13.2118 186.531 13.272 186.49 13.3623C185.295 16.5843 184.109 19.8163 182.914 23.0382C182.691 23.6505 182.468 24.2628 182.235 24.8951H191.1Z" fill="#EEEDE6"/>
</svg>
